<svg width="24" height="30" viewBox="0 0 24 30" fill="none" xmlns="http://www.w3.org/2000/svg">
<path d="M12 15C13.4834 15 14.9334 14.5601 16.1668 13.736C17.4001 12.9119 18.3614 11.7406 18.9291 10.3701C19.4968 8.99968 19.6453 7.49168 19.3559 6.03683C19.0665 4.58197 18.3522 3.2456 17.3033 2.1967C16.2544 1.14781 14.918 0.433503 13.4632 0.144114C12.0083 -0.145275 10.5003 0.00324964 9.12987 0.570907C7.75943 1.13856 6.58809 2.09986 5.76398 3.33323C4.93987 4.56659 4.5 6.01664 4.5 7.5C4.50199 9.48852 5.2928 11.395 6.69889 12.8011C8.10498 14.2072 10.0115 14.998 12 15ZM12 2.5C12.9889 2.5 13.9556 2.79325 14.7779 3.34265C15.6001 3.89206 16.241 4.67296 16.6194 5.58659C16.9978 6.50022 17.0969 7.50555 16.9039 8.47545C16.711 9.44536 16.2348 10.3363 15.5355 11.0355C14.8363 11.7348 13.9454 12.211 12.9755 12.4039C12.0055 12.5969 11.0002 12.4978 10.0866 12.1194C9.17295 11.741 8.39206 11.1001 7.84265 10.2779C7.29325 9.45561 7 8.48891 7 7.5C7 6.17392 7.52678 4.90215 8.46447 3.96447C9.40215 3.02679 10.6739 2.5 12 2.5Z" fill="#0B3F37"/>
<path d="M12 17.5C9.01733 17.5033 6.15777 18.6896 4.0487 20.7987C1.93964 22.9078 0.753309 25.7673 0.75 28.75C0.75 29.0815 0.881696 29.3995 1.11612 29.6339C1.35054 29.8683 1.66848 30 2 30C2.33152 30 2.64946 29.8683 2.88388 29.6339C3.1183 29.3995 3.25 29.0815 3.25 28.75C3.25 26.4294 4.17187 24.2038 5.81281 22.5628C7.45376 20.9219 9.67935 20 12 20C14.3206 20 16.5462 20.9219 18.1872 22.5628C19.8281 24.2038 20.75 26.4294 20.75 28.75C20.75 29.0815 20.8817 29.3995 21.1161 29.6339C21.3505 29.8683 21.6685 30 22 30C22.3315 30 22.6495 29.8683 22.8839 29.6339C23.1183 29.3995 23.25 29.0815 23.25 28.75C23.2467 25.7673 22.0604 22.9078 19.9513 20.7987C17.8422 18.6896 14.9827 17.5033 12 17.5Z" fill="#0B3F37"/>
</svg>
